<svg id="Layer_1" data-name="Layer 1" xmlns="http://www.w3.org/2000/svg" viewBox="0 0 620 620">
    <defs>
        <style>
            .cls-1{
                /*fill: #fefefd;*/
                fill: #f3b351;
            }
            .cls-2 {
                fill: #f3b351;
            }
            .cls-3 {
                /*fill: #fdf6ec;*/
                fill: #f3b351;
            }

            .circle {
                animation: turnaround 2s ease-out;
                transform-origin: center center;
                opacity: 0.1;
                transition-delay: 0.1s;
            }

            @keyframes turnaround {
                0% {
                    transform: rotate(-90deg);
                    transform-origin: center;
                    opacity: 0;
                }
                100% {
                    transform: rotate(0deg);
                    transform-origin: center;
                    opacity: 0.1;
                }
            }
        </style>
    </defs>
    <title>NSY logo</title>

    <g class="circle">
        <!-- <path class="cls-1" d="M131.76,61.4c-.52,2.91-2.62,5.41-5,5.41s-4.49-2.5-5-5.41Z"/> -->
        <path class="cls-3" d="M34.76,219.4c2.73-.41,2.47-2.91,3-4.63,2.58-8.81,6.78-16.56,13.79-22.64,4.18-3.62,8.51-6.22,14.39-7.06,5.7-.81,11.46.64,17.78-2.54-1.53,3.36-3.52,3.61-5.05,4.39-8.42,4.33-10.92,10.16-8,19.32,2,6.48,4,12.87,4.31,19.83.28,7.14-5.1,10.76-8.39,15.64-1.11,1.64-3.26.49-4.81-.84-3.34-2.88-4.59-6.84-5.9-10.79-.36-1.09-.6-2.52-2.17-2.08-1.21.34-.82,1.65-.86,2.59-.2,4.52-.21,9,2.53,13,2.06,3,.82,3.65-2.45,4-7.68.71-12.17-3.06-15.31-9.47-.65-1.34-.39-3.56-2.78-3.63Z"/>
        <path class="cls-3" d="M134.76,61.4c3.19,2.61,7,4.33,9.94,7.34,8.08,8.18,7.6,21.05,1.41,28-5.43,6.09-10.15,12.82-15.18,19.26l-1.19-.43c0-3.4,0-6.79,0-10.19,0-1-.32-2.25-1.47-2.24s-1.44,1.22-1.45,2.26c0,3.65,0,7.3,0,11-2.28.34-3.06-1.47-4-2.57-5.52-6.37-11.57-12.43-16.13-19.45-5.05-7.78-4.37-20.15,5.79-27.89,2.14-1.63,5.43-1.9,6.32-5.1h3c.51,2.91,2.62,5.41,5,5.41s4.48-2.5,5-5.41Z"/>
        <path class="cls-3" d="M580.76,262.4c-5.89,1.7-15.63-5-15.61-11,0-1.81.32-4.43,2.73-4.8,2.86-.44,6.12-1.18,8.29,1.75,1.66,2.24,3.06,4.67,4.58,7Z"/>
        <path class="cls-3" d="M120.77,136.4c-.53-3.1-2.29-5.88-2.1-9.73L95.51,141c-11.72,7.22-30.17-1.69-31.72-15.29a5,5,0,0,1,2.42-5.11c3.34-2,2.74-4.35.6-6.44s-1.69-3.79-.26-6c7.6-12,24-16.64,35.42-4,5.51,6.1,11.15,12.07,17.55,19l-14.08-1.62c2.73,2.25,5.85,2.48,8.92,3s5.49.29,8-2.55c3.35-3.72,8-3.41,12.12-.08,2.27,1.84,3.37,1.63,5.13-.62,5-6.38,10.38-12.48,15.47-18.8,4.45-5.52,14.31-9,21-6.57,5.45,2,10.55,4.82,13.92,10,1.29,2,1.67,3.25-.2,5.07-2.68,2.62-2.72,5.23,1.05,7,2.86,1.35,3,3.23,2.16,6.13-4.35,15.85-18.32,22.21-33.44,14.31-6.57-3.43-13.06-7-20-10.71,4-3.19,8.89-1.53,12.49-3.94-2-1.05-12.55-.09-13.75,1.33a3.11,3.11,0,0,0-.54,1.82c-.29,11-5.23,14.07-15.65,9.84a7.56,7.56,0,0,0-1.46-.28Z"/>
        <path class="cls-3" d="M69.18,282.55a71.76,71.76,0,0,0,7,12.86c5.41,7.46,13.43,11,21.08,15.21,4.66,2.56,9.66,4.44,14.07,7.49s5.94,6.81,4.78,11.94c-.58,2.57-.68,5.27-1.4,7.8-1.49,5.24-6,7.65-11.22,6.53-3.09-.66-2.66-3.45-3.65-5.38-.7-1.37-.7-3.87-2.94-3.15-2,.63-1.5,3.21-.85,4.36,2.75,4.91,1.5,9-2.15,12.55-4.06,4-9,3.48-13.93,2.18-12.28-3.26-17.83-12.39-19.83-27.08-1.81-13.31.4-26.76,5.55-39.44a18.87,18.87,0,0,1,1.28-2.66C67.5,284.79,68.21,283.91,69.18,282.55Z"/>
        <path class="cls-3" d="M97.81,427.74c2.67,2,4.72,3.28,6.56,4.85s1.41,2.89-.74,3.71c-11.6,4.44-22.93,4.85-33.71-2.39-4.81-3.23-6.34-8.63-7.85-13.53-4-13.09-2.47-26.69-1.85-40.06.19-4.25-.78-9.07,2.34-13.53,3.4,4.84,6.35,10,10.2,14.34,7,7.92,13.62,16.33,22.18,22.66,5.32,3.93,9.33,8.94,13.35,14,2.58,3.21,1.66,7.32,1.12,11.08-.28,2-1.55,2.52-3,.72C104.32,426.89,101.54,427.22,97.81,427.74Z"/>
        <path class="cls-3" d="M152.3,413.41c1.53,12.31-6.37,19.09-18.56,16.85-6.89-1.27-11.22-4.41-12.29-12a245.16,245.16,0,0,0-10.89-44.76c-.95-2.78-.44-5.61-1-8.35-.26-1.19-1.48-2.58.37-3.42,1.29-.59,2.12.55,3,1.31,11.91,10.6,25.63,18.76,38.17,28.52,6.34,4.93,10.84,10.78,9.73,19.44a3.52,3.52,0,0,0,0,.5c0,3.12-1.32,6.1-3.94,7C153.88,419.4,154.74,415,152.3,413.41Z"/>
        <path class="cls-3" d="M146.46,147.66c-1.67-3.31-3.35-6.61-5-9.93-.44-.88-1-1.88-.09-2.72.76-.67,1.54,0,2.28.34,8.32,3.32,16.7,6.5,24.93,10,6.87,2.93,12.08,14.4,10.46,21.74a49,49,0,0,1-3.48,9.82c-1.73,3.78-4.06,5.52-8.23,3.53-1.44-.69-3.73-1.52-3.94,1-.6,7-5.51,6-10.13,6-11.2-.17-21.09-9.73-20.34-20.82.59-8.7,2.56-17.3,4-25.93a2.73,2.73,0,0,1,1.47-1.79c1.13-.42,1.75.51,2.21,1.46C142,143.15,143,146.26,146.46,147.66Z"/>
        <path class="cls-3" d="M120.76,136.4c2.47,8.94,4.91,17.89,7.43,26.81,2.62,9.3-4.45,21.14-14.52,24a45.09,45.09,0,0,1-6.84,1.15c-3.25.4-5.82-.13-6.71-4-.66-2.93-2.83-3.4-5.41-2-3.59,1.88-5.56.34-7.61-2.82-7.14-11-7.16-18.24.51-28.73a6.77,6.77,0,0,1,2-2.17c8.7-4.45,17.44-8.8,26.73-13.45-.07,5.08-4.09,8.31-3.11,13.09,1.47-2.87,3.1-5.68,4.34-8.65.69-1.65,1.16-3.12,3.25-3.16Z"/>
        <path class="cls-3" d="M277,518.11c-.68.12-1.15.22-1.64.29-2,.27-5.11-.86-5.25,2.18s3.12,1.18,4.68,2a63.51,63.51,0,0,1,6.68,3.34c5.67,3.8,5.39,9.47.14,14.08-8.83,7.74-19.29,8-30,7.36-14.64-.92-27.37-7.05-39.49-14.75a9.22,9.22,0,0,1-2-1.42c-1.06-1.19-3.24-2-2.73-3.81s2.63-.6,4-1c7.94-2.23,16.23.15,24.21-1.92a55.28,55.28,0,0,0,12-4.23c8.48-4.44,17.27-7.79,27-4.32A2.93,2.93,0,0,1,277,518.11Z"/>
        <path class="cls-3" d="M229.45,479.4a25.33,25.33,0,0,1-13-3.23,57.32,57.32,0,0,1-23.53-21.51c-2.24-3.68-4.67-7.25-6.9-10.93-.84-1.38-2-3.06-.68-4.59s2.85-.12,4,.58c9.42,5.65,20.15,6,30.56,7.68,4.4.71,8.86,1.11,13.19,2.09,8.76,2,12.43,6.7,11.7,14.54-.79,8.51-7,14.93-15,15.38C229.29,479.42,228.79,479.4,229.45,479.4Z"/>
        <path class="cls-3" d="M158.08,489.83c-.74-3.16.38-6.36-1.64-9-.64-.83-1.38-1.59-2.48-1.21-1.48.52-.59,1.58-.4,2.47,2.51,11.68-1.36,15-13.15,12.76-10.65-2.06-14.83-9.68-18.07-18.48-3-8.22-5.73-16.55-8.66-24.81-.83-2.34-.4-4,2.23-2.93,12.48,5.3,26.14,7.79,37.58,15.58,7.57,5.16,10.43,12.44,8.13,21A6,6,0,0,1,158.08,489.83Z"/>
        <path class="cls-3" d="M100.34,284.54c-5.49-.85-11,1.67-15.59-2.64-5.36-5-5.78-11.67-4.48-17.95,2-9.6,1.65-19.15,1.13-28.72-.18-3.39.77-3,2.86-2C96.91,238.87,106.61,248,114,259.5c2.67,4.13,3,9.47,3.55,14.33.4,3.41-1.55,5.89-5.74,6.71-6.15,1.21-11.18.83-14-6.34C95.08,279,99.82,280.91,100.34,284.54Z"/>
        <path class="cls-3" d="M215.08,504.11a18.61,18.61,0,0,0-10-8c2.09,3.41,4,7,6.34,10.17,2.27,3,1,4.61-1.78,5.62-6.63,2.4-13.48,3-19.61-.9-6.85-4.31-12.19-10.13-14.63-18.25-2.58-8.6-4.91-17.19-4.64-26.28.08-2.57.42-3,3.14-1.75a175.52,175.52,0,0,1,34.92,21.6C214.94,491.18,216.7,495.21,215.08,504.11Z"/>
        <path class="cls-3" d="M213.82,417c.15,7.83-3.94,12.77-9.54,15.38-6.93,3.23-13.62.51-19.29-4.28a31,31,0,0,1-10.11-14.46c-2-6.3-3.52-12.78-6.67-18.69-.89-1.67-.56-3.81,1.84-3.4,13.93,2.38,28.53,3,39.07,14.65C212.17,409.54,214.27,413.07,213.82,417Z"/>
        <path class="cls-3" d="M280.72,482.68l4.66.52c4.84,1.75,10.39,1.38,14.16,6.22,2.43,3.11,2.2,4.41-1.23,5.66l-11.21,4.1c-.9.33-2.15.41-2.06,1.73.12,1.67,1.56,1.37,2.67,1.48a23.6,23.6,0,0,0,11.18-1.87c2.58-1,3.24-.08,2.56,2.53-1.39,5.36-5.69,8.86-11.48,9.36-13.56,1.18-25.64-1.38-35.13-12.26-3.44-3.94-8-6.91-12-10.34-.75-.63-1.82-1.31-1.54-2.36.4-1.53,2-1.25,2.95-1,11.73,3.29,22.87-2.7,34.41-2.11A1.82,1.82,0,0,0,280.72,482.68Z"/>
        <path class="cls-3" d="M389,541.42c-9.4.57-17.42-3.55-26-4-1.95-.11-2.28-.93-1.18-2.55,3.94-5.8,7.86-11.51,15.29-13.44,7.22-1.87,14.32-4.21,21.53-6.1,8-2.1,13.29-.3,15.49,4.92s-.62,13.29-6.14,17.07C402,541.35,395.23,541.46,389,541.42Z"/>
        <path class="cls-3" d="M450.35,428.76c3.69,3.7,2.87,8.15,2.17,11.9-1.51,8.16-5.87,14.45-14,18-8.39,3.72-16.47,8-26.1,6.75-1.86-.23-3.7-.14-4.88-1.87-1.44-2.09.88-2.81,1.55-4.15,4.77-9.62,11.71-17.65,18.94-25.41a30,30,0,0,1,13-7.89c2.5-.81,3.59.09,3.6,2.39,0,2.9.91,6.05-1.86,8.4-.77.65-1.4,1.71-.68,2.63,1.06,1.33,2.19.09,3-.44C448.94,436.8,450.29,433.18,450.35,428.76Z"/>
        <path class="cls-3" d="M383.2,503.52c-2.41.5-5.58-1-8.86-1.32-3.89-.43-6.91-7.53-4.48-10.26,8.89-10,19.2-17.41,33.29-17.54,8.56-.08,13.13,7.08,10.16,15.8-2.21,6.5-9.89,12-16.76,12.22C392.42,502.58,388.3,503.09,383.2,503.52Z"/>
        <path class="cls-3" d="M349.36,511.06c-3.68.42-6.77,1.66-10.13,1.38-1.61-.13-3.12.41-3.26,2.29s1.26,2.4,2.9,2.68c3.41.58,6.77,1.52,10.2,1.94,2.65.32,2.95,1.56,2.32,3.72-1.27,4.38-6,8.23-10.7,8.3-6.95.11-13.81-1.09-20.71-1.66-4.15-.34-7.48-2.07-11-4s-3.42-3.21-1-6.2c6.57-7.95,15.13-12.21,24.84-14.56C339.33,503.34,345.06,504.45,349.36,511.06Z"/>
        <path class="cls-3" d="M336.87,468.17c12.81.14,12.81.14,10.47,14.9,7-1.21,11.77-4.86,13.84-11.71,4.43-.64,5.54.55,5,5.16-1,9-7.41,13.43-14.6,16.66-6.44,2.89-13.47,3-20.46,1.53-3.54-.74-7.19-.27-10.77-1.45-3.86-1.27-3.78-2.84-1.48-5.47,5.24-6,10.39-12,16.5-17.18A3.59,3.59,0,0,0,336.87,468.17Z"/>
        <path class="cls-3" d="M440.11,521.4c-14.74,1.44-15.93-4.38-18.64-11.7-1.38-3.73.48-6.29,4.42-6.25a134.81,134.81,0,0,0,31.61-2.93c2.18-.5,4.8-.71,6.38,1.66s1.08,4.75-.06,7.11c-3.78,7.83-9.5,12.66-18.72,12.13C443.44,521.32,441.77,521.4,440.11,521.4Z"/>
        <path class="cls-3" d="M381.63,464.4c-4,.07-5.33-.93-4-5.11,2.53-7.75,4.62-15.51,10.93-21.35a23,23,0,0,1,10-5.27c2-.53,4.49-1.19,3.75,2.87-.54,3,1.71,1.89,2.71.9,3.29-3.24,3.8-.07,4.48,1.95s0,4.23-.71,6.31C406.11,452.75,393.95,464.71,381.63,464.4Z"/>
        <path class="cls-3" d="M453.33,485.38c5.85-.12,8.75-3.4,12.25-5.35.83-.46,1.52-1.75,2.51-1s.63,2.08.24,3.21c-2.14,6.08-6.92,9.54-12.71,10.94-7.6,1.84-15.5,1.47-23.29,1.2-3.64-.13-4.93-3.34-2.51-6.36,2.66-3.32,5.29-6.63,9.37-8.64,6.37-3.13,12.3-7.13,19.73-7.61,2-.13,4,0,5.05,1.25,1.3,1.56-.85,3.08-1.76,4.11C459.85,479.77,457,482,453.33,485.38Z"/>
        <path class="cls-3" d="M326.09,548.49c4.5,1.51,7.13-.77,10-1.37,1.27-.26,2.49-1.2,3.55.31a3.74,3.74,0,0,1,.49,4.17,10.82,10.82,0,0,1-4.73,4.93c-8.47,4.43-25.34,1.33-31.8-5.73-2.71-3-2.61-5.17,1.16-6.93,8.35-3.9,17-6.07,26.26-4.49,1.73.29,4,.77,4.23,2.85.22,2.3-2.39,2.36-3.84,3.27S328.6,547.11,326.09,548.49Z"/>
        <path class="cls-3" d="M543,362c-.47-3.78-.89-7-1.28-10.31-.12-1-.25-2.09-1.6-2-1,0-1.25.9-1.35,1.78-.33,2.95-.66,5.89-1,8.83-.16,1.23.69,3.07-.91,3.51s-3.13-.76-4-2.3c-3.12-5.59-3.57-11.55-2.74-17.79.8-6,5.18-10.28,7.14-15.73.92-2.55,3.56-2.06,4.3.47,2.42,8.35,6.7,16.24,6.27,25.34A9.33,9.33,0,0,1,543,362Z"/>
        <path class="cls-3" d="M521,404.75c-1.08,7.91-6.42,13.33-10.95,19.15-.85,1.09-2.49.5-3.62-.41a10,10,0,0,1-3.43-4.81c-1.93-6.17-1.58-12.41-.55-18.67.47-2.9,2.57-4.6,4.69-6.18,1.3-1,3-2,4.61-1.07s.86,2.59.37,4a2.34,2.34,0,0,0,.87,3.06c1.09.68,2,0,2.57-.79,3-4.17,3.58-1.09,4.33,1.39C520.32,401.82,520.63,403.27,521,404.75Z"/>
        <path class="cls-3" d="M502.56,456.87c2.65.28,3.43-1.39,4.81-1.83,1-.31,1.7-2.07,2.94-.83.87.88.65,2.29.23,3.34-2.47,6.2-5.75,11.79-12.91,13.34-3.4.73-6.53,2.44-10.09,2.53-3,.08-4.72-.84-3.18-4.06,2.8-5.85,5.45-11.81,8.77-17.35,2.44-4.07,7-4.73,11.47-4.54,2.52.11,2.52,1.93,1.69,3.57A64.71,64.71,0,0,1,502.56,456.87Z"/>
        <path class="cls-3" d="M467.75,437.71a37.47,37.47,0,0,1,11.78-20.4c2.29-2,7.14.58,8.17,4.71,1.93,7.75.8,17-9,20.88-1.08.42-2.19.75-3.26,1.19C468.64,446.91,467.88,446.42,467.75,437.71Z"/>
        <path class="cls-3" d="M515.71,359.18c-.42,6.9-3.38,11.88-7.51,16.08-2.85,2.91-7.74,1.07-8.4-2.9-1.33-8,1.5-15.31,4.39-22.5.76-1.88,2.49-3.79,5.05-3.35a5.67,5.67,0,0,1,4.45,4.26C514.58,353.79,515.17,356.88,515.71,359.18Z"/>
        <path class="cls-3" d="M469,383.58c.7-3.9,1.3-6.93,1.75-10,.13-.9.38-2.18-.78-2.61s-1.62.65-2.08,1.55c-1,2.05-1.32,6.17-3.88,5.25-2.93-1.06-.79-4.63-.22-7,1.66-7,3.91-13.7,9.69-18.57,1.67-1.41,2.62-2.5,3.48.83,1.63,6.29,5.45,12.13,2.78,19.1C477.79,377.1,474.93,381.05,469,383.58Z"/>
        <path class="cls-3" d="M549.52,400.71c-.89,6.77-3.25,12.4-9.52,15.58-1.58.8-3.2,1.55-4-.83-2.27-6.56-4.14-13.13-1.1-20,1.57-3.56,3.41-6.29,8-6.1s5,3.66,5.84,6.79A45,45,0,0,1,549.52,400.71Z"/>
        <path class="cls-3" d="M429.77,404.82c-1.15-5.79,3.14-10.09,6.07-14.76,1.71-2.73,5.05-3.42,8.07-2.34s4,3.54,3.91,6.78c-.24,7-2.65,12.46-9.07,15.94C431.86,414.18,429.76,413.08,429.77,404.82Z"/>
        <path class="cls-3" d="M557.69,308.08c.39-3.44.61-6.91,1.23-10.31s3.66-4,6.12-4.09c2.85-.09,4.63,2.47,5.57,5,2.05,5.45.88,10.87-1.67,15.73-1.33,2.54-2.08,7.28-5.74,6.57-3.49-.68-4.21-5.12-5.16-8.43A21.28,21.28,0,0,1,557.69,308.08Z"/>
        <path class="cls-3" d="M509.73,328.1c.16,5.7-2.41,8.43-6.79,8.3-5.06-.14-9.86-5.44-9-10.37a17.22,17.22,0,0,1,2.46-6.47c3.65-5.58,7.64-5.26,10.32.71C508,323.13,509,326.11,509.73,328.1Z"/>
        <path class="cls-3" d="M522.86,306.23a47.49,47.49,0,0,1,.07-7.45c.58-3.58,3-5.62,6.67-5.28,3.41.32,5,2.61,5.21,6.11a21.35,21.35,0,0,1-5,16.13c-1.17,1.37-2.7,2.85-4.65,2.1-1.62-.63-2.18-2.5-2.3-4.16-.17-2.47,0-5,0-7.46Z"/>
        <path class="cls-3" d="M571.77,357.92c0,6.78-2.82,10.43-8.24,11.36-2.79.48-4.73-.46-4.31-3.63.92-6.88,2.48-13.62,5.81-19.81.84-1.57,2-3.46,3.11-.41C569.72,349.71,572.58,353.7,571.77,357.92Z"/>
        <path class="cls-3" d="M462.9,401.12c-.07,1.41-.33,2.55.9,3,1.55.53,1.85-.92,2.53-1.79.94-1.2.79-3.83,3-3.34s3,2.68,3.31,4.63a12.34,12.34,0,0,1-2.1,9.41c-1.7,2.4-4,4.83-7.38,4.2s-3.43-3.94-3.9-6.35a33.52,33.52,0,0,1-.19-9.37,3,3,0,0,1,3.48-2.79C464.48,399.12,462.68,400.58,462.9,401.12Z"/>
        <path class="cls-3" d="M546.64,180.38c-6.45,0-14.1-9.24-12.69-15,.48-2,1.48-3.53,3.83-1.92,4.08,2.79,8.76,4.7,12.13,8.55,1.59,1.82,3.14,4,2.12,6.12C551.11,180.08,548.37,180,546.64,180.38Z"/>
        <path class="cls-3" d="M547.61,269.39a8.06,8.06,0,0,1-7.8-8.42,10.63,10.63,0,0,1,1-4.3c1-1.89-.67-5.78,2.95-5.58,4.6.26,10.36,7.78,10,12.23C553.35,267.23,551,269.14,547.61,269.39Z"/>
        <path class="cls-3" d="M536.69,236.94a16.2,16.2,0,0,1,0,3,7.58,7.58,0,0,1-4.19,5.87c-2.72,1.14-2.66-2.29-4.13-3.36a10.4,10.4,0,0,1-4.16-6.62,6.86,6.86,0,0,1,4.59-7.88c3.82-1.52,5.42,1.17,7.08,3.71C536.92,233.25,536.8,235.11,536.69,236.94Z"/>
        <path class="cls-3" d="M467.15,180.39c-5.68,0-9-3.24-11.45-7.61-2.28-4,0-7.64,1.12-11.33a2.59,2.59,0,0,1,1.71-1.54c1-.14,1.2.9,1.2,1.75,0,6.24,4.61,9.1,8.92,12.15,1.56,1.11,4.22,1.65,3.63,4S469.26,180.63,467.15,180.39Z"/>
        <path class="cls-3" d="M503.77,280.16c.06-5,2.34-7.72,6.37-7.74,3.62,0,5.43,3.14,5.69,8.88.21,4.75-2.38,6-6.38,6.09C505.1,287.45,503.7,285.65,503.77,280.16Z"/>
        <path class="cls-3" d="M566.77,217.09c-.05,4.5-1.38,5.28-5.17,3.21-1.75-1-3.47-2-5.12-3.07-2.1-1.42-4.07-3-3.69-6a4.74,4.74,0,0,1,4.27-4.27c2.55-.29,5.44,0,7.09,2.52C565.7,211.84,567.19,214.31,566.77,217.09Z"/>
        <path class="cls-3" d="M507,166.38c-6.17.08-10.22-4.29-10.08-9.89,0-1.8.34-3.87,2.87-3.88,4.12,0,10.88,5.8,11.07,9.13C511,165.43,508.89,166.32,507,166.38Z"/>
        <path class="cls-3" d="M511.45,130.46c5,0,11.82,7.2,11.29,11.73-.15,1.33-.86,2.77-2,1.37-2.82-3.39-7.1-3.23-10.56-5-2.13-1.08-3.5-2.85-3.09-5.13S509.78,130.86,511.45,130.46Z"/>
        <path class="cls-3" d="M475.66,159.4c-5.16,0-6.82-2.06-6-7.28a27.88,27.88,0,0,0,.14-3.45c0-1.21.28-2.37,1.53-2.84s1.84.46,2.52,1.15a77.64,77.64,0,0,1,5.46,5.7c1.12,1.39,2,3.17,1.15,5C479.47,159.83,477.42,159.31,475.66,159.4Z"/>
        <path class="cls-3" d="M491.74,113.85c-.13,1.11.6,3.15-1.09,3.69-2,.64-2.06-1.71-2.71-2.85-1.38-2.43-4.14-3.22-5.81-5.31-1-1.19-3.21-1.71-1.78-3.87A3.94,3.94,0,0,1,486,104C489.85,106,492.08,109,491.74,113.85Z"/>
        <path class="cls-3" d="M520.87,200c-.23-2.8.59-4.2,2.17-5s2.31.73,3.27,1.51c.51.41.9,1,1.47,1.3,2.38,1.15,3.55,2.89,2.83,5.55-.5,1.85-2.16,2.55-3.73,2.83-2.59.46-3.71-1.75-4.89-3.45A10.07,10.07,0,0,1,520.87,200Z"/>
        <path class="cls-3" d="M464.62,118.55c0,1.58-.84,2.94-2.25,2.62-3-.68-6.4-1.53-7.34-5-.56-2.08,1.35-2.78,3.19-2.73A6.21,6.21,0,0,1,464.62,118.55Z"/>
        <path class="cls-3" d="M426.89,72.36c2.29.1,3.86-.25,5.07.87s3.11,2.06,2.49,3.89c-.77,2.28-2.66,1-4.18.62-1-.21-2-.15-2.92-.37-1.9-.44-5.07.17-4.89-2.56C422.62,72.42,425.48,72.26,426.89,72.36Z"/>
        <path class="cls-3" d="M497.42,188.37c-2.65-.81-5.52-1.68-5.62-5.47,0-1.56.35-3.51,2.19-3.09a8.47,8.47,0,0,1,6.54,6C501,187.52,499.36,188.28,497.42,188.37Z"/>
        <path class="cls-3" d="M449.64,107.19c-2.34-.53-4.25-.83-6.06-1.42-1.44-.47-3.87-.42-3.32-2.78.48-2,2.64-1.65,4.26-1.55C447.75,101.64,448.79,103.93,449.64,107.19Z"/>
        <path class="cls-3" d="M465,90.48c1.74,0,3.48.19,3.33,1.75-.32,3.27-3.63,2-5.51,2.85-1.45.65-4-.36-3.63-2.06C459.81,89.87,463.6,92.29,465,90.48Z"/>
        <path class="cls-3" d="M285.62,482.74l-.56-1.31Z"/>
    </g>
    <g>
        <path class="cls-2" d="M108.74,244.43c2-.11,3.49,1,5,1.92q15.46,9.65,30.92,19.31c2.75,1.72,5.16,3.63,5,7.44-.14,2.7,2,4.11,4,5.38,5.21,3.46,8.19,8.65,11.2,13.84.4.7,1.12,1.45.52,2.25-.89,1.18-1.78.2-2.57-.26a39.82,39.82,0,0,0-6.86-3.51c1.68,5.94,3.54,11.83,8.66,15.76A14.92,14.92,0,0,1,170,314c4.3,12.79,10.48,24.75,16.54,36.76a5.17,5.17,0,0,0,3,3.11c-.83-8.55-2-17,1.14-26.34,2.89,5.35,2.21,10.22,3,14.72,1.51,8.2,3.13,16.34,6.85,23.88,5.9,12,13,15.4,25.94,12.7,8.79-1.82,17.54-4.09,26.6-1.53,4.61,1.3,9,3.31,11.83,7.05,10.06,13.08,17.27,27.3,15.35,44.54a19,19,0,0,0,.32,4.43c.16,1.4.64,2.84-.42,4.77-2.72-6.92-6.66-12.79-6.34-20.43s-3.93-13.17-10.2-17.22a34.69,34.69,0,0,0-20.45-5.28,5.35,5.35,0,0,0-2.9.55c-9.29,7.19-19.59,4.08-29.2,2-22.93-5-35-20.85-40.28-42.81-2.62-10.83-5.45-21.6-8.28-32.37a58.44,58.44,0,0,0-7.16-16.4,136.19,136.19,0,0,1-10.87-20.74c-5.42-13.14-16.3-21.59-26.83-30.35-3.54-2.94-8.76-4.77-8.83-10.68Z"/>
        <path class="cls-2" d="M509.78,239.41c-4.14,9.94-9.68,18.9-18.07,25.88-1.28,1.06-2.49,2.23-3.86,3.17-7.6,5.28-10.85,12.67-11.09,21.75-.15,5.65-.67,11.29-1.14,16.93a42.54,42.54,0,0,1-5,17.57q-12.44,22.38-24.38,45C439,383.63,426.46,391.37,411.42,395c-5.32,1.28-10.59-.05-15.68-1.83a44.38,44.38,0,0,0-13.09-2.87c-13.79-.48-24.13,9-24.88,22.91-.44,8.2-2.23,11.73-8.62,17-.26-.16-.74-.3-.75-.48-.7-13-2.78-26,2.88-38.72,7.21-16.26,17.38-22.25,34.88-19.24,5.24.9,10.49,1.84,15.76,2.51,15.86,2,27.93-4.61,36.92-17.16a70,70,0,0,0,13.29-42.6,13.77,13.77,0,0,1-.07-1.5c.26-2.6.19-6.7,2.67-6.76,3.08-.07,1.42,4,2.1,6.16s-.12,6.06,2.63,6.1c2.07,0,1.92-3.76,2.22-6a139.81,139.81,0,0,1,9.23-35.1,47.12,47.12,0,0,1,15.52-19.75c6.46-4.94,12.33-10.65,18.54-15.93,1.33-1.13,2.59-2.7,4.72-2.36Z"/>
        <path class="cls-2" d="M336,303.5c-.76-10.24,3.52-17.21,10-23.14,5.09-4.64,11.32-7.6,17.21-11,18.85-10.93,28-27.11,27.65-49-.31-20,0-40-.06-60a26.63,26.63,0,0,1,5.56-16.71c3.78-5,9.72-7.54,13.78-6.08s8.14,9.18,7.34,14.81c-.77,5.4-1.76,10.72-4.16,15.81-4.5,9.52-4.9,20-5.46,30.24a199.39,199.39,0,0,1-5.68,37.9C396.53,258.78,384,275.13,361.71,283c-7.78,2.73-13.91,7.7-18.9,14.18A21.9,21.9,0,0,1,336,303.5Z"/>
        <path class="cls-2" d="M283,301.82c-.15,0-.38.07-.45,0-2.66-3-16.66-12.51-20.7-14.66-12.38-6.59-18.27-18-21.92-30.78-2.11-7.4-2.57-15.1-2.88-22.72-.83-20.23-6.75-39.22-13.41-58.06a15.44,15.44,0,0,0-4.88-6.83c-7.08-5.81-10.12-17.67-6.75-26.26,1.82-4.66,5.79-5.4,9.89-4.61,7.68,1.47,12.59,6.83,15.64,13.52,6.05,13.28,8.46,27.51,10.46,41.91,3.07,22.1,2.2,44.45,4.93,66.54,1.16,9.38,6.23,15.73,16.05,18S285.74,292.44,283,301.82Z"/>
        <path class="cls-2" d="M329,197.11c-4.7,8.64-.35,13.49,5.07,18,8,6.69,12.46,15,11.58,25.74a12.13,12.13,0,0,1-7,10.64c-15.36,8-30.14,8.79-44.33-2.58-10.87-8.72-12.85-20-5.38-31.7q6.45-10.1,13.08-20.09c3-4.56,6-9.14,10.61-12.45,3-2.12,3.22-5.29.82-8.33-2.89-3.64-6.26-4.21-9.55-2s-1.61,4.51-.9,7c.39,1.38,2.56,2.86.44,4.26-1.59,1-3.24-.07-4.59-1-.91-.66-2.15-1.51-2.32-2.45-1.22-6.59-2.26-13.26,2.37-19.12,3.11-3.93,7.22-4.49,11.7-2.85a33.51,33.51,0,0,1,16.15,12.05c5.61,7.8,5,14.34-2.25,20.64-6.17,5.33-12.68,10.26-18.37,16.14a31.72,31.72,0,0,0-9.4,23.91c.26,8.14,3.49,11.9,12.42,14.61,8.74,2.65,16.22.83,20.37-4.94,5.34-7.44,1.32-15.26-5.25-19.6a3.83,3.83,0,0,0-4.69,0,4.25,4.25,0,0,0-1,4.62c.36,1.25,1.37,2.3,1.76,3.54.76,2.42,2.61,5-.27,7.28s-5.95,2.88-9.26.93c-6.64-3.91-6.49-14.6.79-18.78,5.46-3.13,8.53-6.59,8.45-13.27C320,202.73,323.59,199.65,329,197.11Z"/>
        <path class="cls-2" d="M336.87,468.17c-6.1-.66-12.13-1.36-17.43-5-2-1.36-4.51-.72-6.82-.26-8.47,1.69-16.63,4.72-25.28,5.62-2.63.27-3.53,2.11-3.61,4.58-.09,2.88.74,5.59,1.33,8.35l.56,1.31a.59.59,0,0,0-.25.47l-4.66-.52c-7.08-1.56-9.45-6.68-9.92-13.21-.24-3.38-.46-6.43-5.4-5.49-2.39.46-3.76-1.56-4.75-3.68-4.28-9.19-.45-21.18,8.56-26.46,1,1.52-.28,2.4-1,3.43-5.61,8.24-.68,18.89,9.34,20.13,5.85.73,11.19-.83,16.28-3.63,11.09-6.11,22.69-7.53,34.56-2.81,6.63,2.63,13.48,3.54,20.43,4.14,6,.52,12.68-5,15.87-12.55.59-1.4.31-4,2.37-3.78,1.83.19,2.39,2.5,3,4.26,2.28,6.8.55,13.14-5.51,17-4.71,3-2.08,7.62-3.38,11.32-2.07,6.85-6.8,10.5-13.84,11.71C349.68,468.31,349.68,468.31,336.87,468.17Z"/>
        <path class="cls-2" d="M204.21,219.71c6.8.1,10.05,2.59,10.08,7.48,0,8.37.57,16.79,3.06,24.64,4.16,13.1,7.43,26.8,17.36,37.26,4.6,4.84,10.38,7.67,16.71,9.53A131.87,131.87,0,0,1,277.26,309c7.77,4.2,10.22,12.46,15.37,18.62a1.35,1.35,0,0,1-.38,2.15c-1.39.61-2.14-.65-2.76-1.55-3.4-4.94-7.56-8.86-13.58-10.32-6.45-1.57-12.91-3.13-19.39-4.56-2.91-.64-5.92-.85-8.85-1.46-12.09-2.54-20.69-9.82-26-20.67a351.93,351.93,0,0,1-22-57.11,22.9,22.9,0,0,1-.84-7.89C199.13,221.76,201.69,219.71,204.21,219.71Z"/>
        <path class="cls-2" d="M400.2,273.44c1.3,2.57,1.94,5.5,4.5,5.57,3,.08,3.51-3,4.51-5.29,3.48-7.77,3.76-16.18,4.38-24.41.87-11.6,2.29-23.16,2.37-34.82,0-6.19,2.52-8.6,7.54-8,5.8.69,9,4.4,7.84,9.87-3.47,16.93-6.5,34.05-12.2,50.34-5,14.24-14.05,26-28.17,32.94-5.82,2.86-11.65,5.7-17.38,8.75-5.44,2.89-10.78,5.53-17.23,5.79-7.92.32-14.07,4.46-18.91,10.69-1.32,1.7-3,5.2-4.92,3.67-2.07-1.67-1.23-5.48.8-7.69,6-6.57,12.94-11.92,21.66-14.56,5.25-1.59,10.44-3.36,15.72-4.84,9.81-2.75,17-8.77,22.36-17.27C395.27,280.66,397.65,277.26,400.2,273.44Z"/>
        <path class="cls-2" d="M273,251.29c7.93,2.34,14.1,6.76,19.77,11.93,4.8,4.37,9.46,8.88,14.15,13.36,1.33,1.27,2.66,2.22,4.07.27,9.51-13.15,23.94-17.75,38.45-22.21,1.11-.34,2.2-.72,3.32-1,.23-.06.55.26,1.07.52-.73,2.63-3.12,3.75-5,5.07a50.25,50.25,0,0,0-17.68,21.14c-2.47,5.41-5.89,10.42-9.16,15.42-5.83,8.91-17.23,8.85-23-.12-1.7-2.63-2.79-5.65-4.23-8.46-2.32-4.49-6.07-7.65-9.49-11.24-3.07-3.23-8.08-4.89-9.34-9.82C274.7,261.39,273.26,256.66,273,251.29Z"/>
        <path class="cls-2" d="M335,368c-7.63-1-14.74-1.82-21.79-2.95a39.14,39.14,0,0,0-21,2.46c-1,.4-2.15,1.44-3.13.12-.72-1,.19-1.85.53-2.76a10.28,10.28,0,0,1,6-6.32c2.62-1,5.15-2.34,7.81-3.28,3.83-1.35,7.47-4.46,11.76-3,7.72,2.66,15.17,6,20.9,12.18.77.82,1.7,1.9,1.12,3.08S335.4,368,335,368Z"/>
        <path class="cls-2" d="M376.61,360.72c1.16-5.83,2.15-11.7,3.53-17.48,1.6-6.74,6.22-11.16,12-14.53,2.3-1.33,4.59-2.67,6.82-4.11,1.94-1.26,4.12-2.38,5.73-.16,1.45,2,.16,4.18-1.47,5.67a112.72,112.72,0,0,0-13.05,14.35c-4.23,5.49-8.31,11.09-12.45,16.64Z"/>
        <path class="cls-2" d="M312.33,378c5.35.23,11.06-1.26,15.28,3.86,1.76,2.14,1.77,3-.82,4.3-4.25,2.11-8.77,1.65-13.2,1.94-5.12.33-10.3-.42-15.36,1.12-1.15.35-2.85.65-3.73-.6-1-1.47-.65-3.16.17-4.71,2.48-4.74,6.79-6.07,11.67-6.19C308.35,377.66,310.34,377.89,312.33,378Z"/>
        <path class="cls-2" d="M241.69,349c-9.46-9.67-19.38-18.79-24.4-31.61-.58-1.47-1.16-3,.11-4.14a3.49,3.49,0,0,1,4.22-.21c4.1,2.28,8.31,4.75,10.57,8.91C236.77,330.39,238.64,339.88,241.69,349Z"/>
        <path class="cls-2" d="M302.54,308.29c5.32,1.24,11.12,2.39,17,.07a2.47,2.47,0,0,1,3.05,1.93c.39,1.65.27,3.46-1.16,4.59-5.52,4.35-11.86,6.65-18.86,5.88-4.12-.45-6.71-7-4.85-10.77C298.71,308,300.45,308.53,302.54,308.29Z"/>
        <path class="cls-2" d="M347.46,338.5c-3.36-.72-7.9-.22-9.85-4.61-1.13-2.55,3.29-7.17,8.26-8.78,2-.65,4.24-.65,6.36-1,2.62-.43,5.74-1.38,7.23,1.4,1.38,2.59-.7,5.13-2.24,7.25C355,335.9,352.36,338.75,347.46,338.5Z"/>
        <path class="cls-2" d="M318.58,399.45c3.22-.16,6.31.11,9,2.22,2.31,1.82,2.74,3.89,1.42,6.56-1.45,2.94-3.27,1.74-5.32.88-5.14-2.15-10.43-1.22-15.69-.48-.82.11-1.6.48-2.41.59-2,.27-4.69.53-5.31-1.47-.71-2.27.88-4.45,3.3-5.47A41.34,41.34,0,0,1,318.58,399.45Z"/>
        <path class="cls-2" d="M271.67,323.25c7.09,0,12.58,4.11,13.83,9.66.76,3.35-.21,5.44-4.08,5.65a15.1,15.1,0,0,1-15.48-12.05c-.37-1.69.35-2.62,1.82-2.89A31.14,31.14,0,0,1,271.67,323.25Z"/>
        <path class="cls-2" d="M296.66,338.58c.34-2.4,1.61-5.42,5.07-6.28a34.7,34.7,0,0,1,17.67,0,6.6,6.6,0,0,1,4.83,5.79c.37,2.51-1.07,4.3-3.48,2.67-7.33-5-14.11-3.12-20.93.89C297.39,343.09,296,342.7,296.66,338.58Z"/>
        <path class="cls-2" d="M286.82,171.8c-.47,3.18-.84,5.61-1.18,8.05-.53,3.87.85,5.36,5,4.9,5.65-.63,8,2.86,5.69,7.95-1.48,3.21-3.91,4.57-7.16,2.21a44.4,44.4,0,0,1-5.62-4.86C277.73,184.08,278.67,178,286.82,171.8Z"/>
        <path class="cls-2" d="M320.42,427.27c-5-.34-9.18,1.58-13.55,2.44-2.28.44-4.54,1.39-5.43-2.15-.8-3.2.72-4.81,3.29-5.7a25.31,25.31,0,0,1,15.64-.16c2.36.69,5.49,1.78,4.88,4.67C324.76,428.72,321.75,426.49,320.42,427.27Z"/>
        <path class="cls-2" d="M244.43,364.27c-5-.53-13.88-9.31-14.61-14.41-.26-1.82.34-2.35,2.17-2.09,4.78.69,14.62,10.33,15.06,14.88C247.19,364.12,246.59,364.49,244.43,364.27Z"/>
        <path class="cls-2" d="M364.21,432.43c-.71,3.78-3.54,5.61-6.55,7-1.39.65-2.15-.64-1.85-2,.46-2.11,1.13-4.17,1.7-6.25s1-4.21,3.7-3.85C364.13,427.75,363.41,430.61,364.21,432.43Z"/>
        <path class="cls-2" d="M304.91,349c3.61-6.26,8.09-6.81,13.62-2.15C314.26,348.43,309.86,348.13,304.91,349Z"/>
        <path class="cls-2" d="M108.8,244.38c-4.91-3.51-5.51-6.48-2-11.72l1.93,11.78Z"/>
        <path class="cls-2" d="M509.72,239.35l.3-.63c.71.5,0,.52-.23.69Z"/>
        <animate
            attributeType="CSS" attributeName="opacity" 
            from="0" to="1" dur="2000ms" repeatCount="1"
            delay="0.1"
        />
    </g>

</svg>
