<svg width="26" height="26" viewBox="0 0 26 26" fill="none" xmlns="http://www.w3.org/2000/svg">
<path d="M16.6717 1.9685C15.2824 0.295276 13.7939 0 13.7939 0L12.7023 1.1811L11.5114 0C11.5114 0 10.0229 0.295276 8.7328 2.06693C7.44272 3.83858 8.53432 6.29921 8.53432 6.29921L12.5038 10.9252H12.603V11.0236H12.8015V8.26772C12.8015 8.16929 12.9007 8.07087 13 8.07087C13.0992 8.07087 13.1984 8.16929 13.1984 8.26772V11.0236V10.9252H13.2977L17.0687 6.20079C17.0687 6.10236 17.9618 3.64173 16.6717 1.9685Z" fill="url(#paint0_linear)"/>
<path d="M2.67939 7.28327C0.793893 8.36594 0.29771 9.74389 0.29771 9.74389L1.29008 11.0234L0 12.0077C0 12.0077 0.0992367 13.4841 1.58779 15.0589C3.17557 16.6337 5.75573 15.9447 5.75573 15.9447L10.916 12.7951V12.6966H11.0153V12.4998L8.23664 12.1061C8.13741 12.1061 8.03817 12.0077 8.03817 11.8108C8.03817 11.7124 8.1374 11.614 8.33588 11.614L11.1145 12.0077H11.0153V11.9092L6.94657 7.57854C6.94657 7.57854 4.66412 6.29901 2.67939 7.28327Z" fill="url(#paint1_linear)"/>
<path d="M3.77093 21.0627C4.26712 23.1297 5.45796 24.0155 5.45796 24.0155L7.04574 23.425L7.64116 24.9998C7.64116 24.9998 9.12971 25.3935 11.0152 24.3108C12.9007 23.2281 12.9999 20.669 12.9999 20.669L11.4122 14.7635H11.3129L11.1144 14.6651L9.9236 17.1257C9.82437 17.2242 9.72513 17.3226 9.62589 17.2242C9.52666 17.1257 9.42742 17.0273 9.52666 16.9289L10.7175 14.4683H10.6183L5.16025 17.2242C5.25948 17.1257 3.27475 18.9958 3.77093 21.0627Z" fill="url(#paint2_linear)"/>
<path d="M16.0764 24.3111C18.0611 25.1969 19.5497 24.7048 19.5497 24.7048L19.9466 23.13L21.5344 23.6221C21.5344 23.6221 22.7252 22.6378 23.023 20.4725C23.3207 18.3071 21.2367 16.6339 21.2367 16.6339L15.5802 14.3701H15.481L15.2825 14.4685L16.5726 16.9292C16.6718 17.0276 16.5726 17.126 16.4733 17.2244C16.3741 17.3229 16.2749 17.2244 16.1756 17.126L14.8855 14.7638V14.8622L13.7939 20.8662C13.7939 20.8662 14.0917 23.4252 16.0764 24.3111Z" fill="url(#paint3_linear)"/>
<path d="M24.5114 14.5667C26 12.9919 25.9008 11.4171 25.9008 11.4171L24.5114 10.5313L25.4046 9.15335C25.4046 9.15335 24.8092 7.77539 22.8244 6.79114C20.8397 5.90531 18.6565 7.28327 18.6565 7.28327L14.7862 11.9093V12.0077H14.687L14.7862 12.2045L17.5649 11.7124C17.6641 11.7124 17.7633 11.8108 17.8626 11.9093C17.8626 12.0077 17.7633 12.1061 17.6641 12.2045L15.084 12.7951H15.1832V12.8935L20.542 15.6494C20.542 15.7478 23.1221 16.24 24.5114 14.5667Z" fill="url(#paint4_linear)"/>
<path d="M14.9846 13.2876C14.9846 14.3702 14.0915 15.1576 13.0991 15.1576C12.0075 15.1576 11.2136 14.2718 11.2136 13.2876C11.2136 12.2049 12.1068 11.4175 13.0991 11.4175C14.0915 11.4175 14.9846 12.2049 14.9846 13.2876Z" fill="url(#paint5_linear)"/>
<defs>
<linearGradient id="paint0_linear" x1="8.10929" y1="5.46594" x2="17.3831" y2="5.46594" gradientUnits="userSpaceOnUse">
<stop stop-color="#F3CD75"/>
<stop offset="1" stop-color="#F6921E"/>
</linearGradient>
<linearGradient id="paint1_linear" x1="0" y1="11.4989" x2="11.0968" y2="11.4989" gradientUnits="userSpaceOnUse">
<stop stop-color="#F3CD75"/>
<stop offset="1" stop-color="#F6921E"/>
</linearGradient>
<linearGradient id="paint2_linear" x1="3.73144" y1="19.7279" x2="13.0458" y2="19.7279" gradientUnits="userSpaceOnUse">
<stop stop-color="#F3CD75"/>
<stop offset="1" stop-color="#F6921E"/>
</linearGradient>
<linearGradient id="paint3_linear" x1="13.7653" y1="19.6562" x2="23.1168" y2="19.6562" gradientUnits="userSpaceOnUse">
<stop stop-color="#F3CD75"/>
<stop offset="1" stop-color="#F6921E"/>
</linearGradient>
<linearGradient id="paint4_linear" x1="14.9058" y1="11.2089" x2="25.9782" y2="11.2089" gradientUnits="userSpaceOnUse">
<stop stop-color="#F3CD75"/>
<stop offset="1" stop-color="#F6921E"/>
</linearGradient>
<linearGradient id="paint5_linear" x1="11.1079" y1="13.2943" x2="14.943" y2="13.2943" gradientUnits="userSpaceOnUse">
<stop stop-color="#F3CD75"/>
<stop offset="1" stop-color="#F6921E"/>
</linearGradient>
</defs>
</svg>
